<svg xmlns="http://www.w3.org/2000/svg" viewBox="0 0 512 512" role="img" aria-label="Chef Cinnamon reading adventure icon"><defs><linearGradient id="bg" x2="1" y2="1"><stop stop-color="#6d3b8c"/><stop offset="1" stop-color="#b66cc5"/></linearGradient><linearGradient id="book" x2="0" y2="1"><stop stop-color="#fff4b5"/><stop offset="1" stop-color="#f2b84b"/></linearGradient></defs><rect width="512" height="512" rx="112" fill="url(#bg)"/><circle cx="256" cy="232" r="168" fill="#fff" opacity=".12"/><path d="M146 208c-30-58 19-117 78-91 19-51 91-51 110 0 59-26 108 33 78 91-13 25-38 38-66 38H212c-28 0-53-13-66-38Z" fill="#fffdf4" stroke="#43214f" stroke-width="18" stroke-linejoin="round"/><path d="M180 232h152v58H180z" fill="#fffdf4" stroke="#43214f" stroke-width="18"/><path d="M90 306q80-37 166 22v115q-86-57-166-20Z" fill="url(#book)" stroke="#43214f" stroke-width="18" stroke-linejoin="round"/><path d="M422 306q-80-37-166 22v115q86-57 166-20Z" fill="url(#book)" stroke="#43214f" stroke-width="18" stroke-linejoin="round"/><path d="M256 329v113" stroke="#43214f" stroke-width="14"/><path d="M143 353q47-13 82 12M369 353q-47-13-82 12" fill="none" stroke="#9a6427" stroke-width="12" stroke-linecap="round"/><circle cx="256" cy="84" r="20" fill="#ffe56d"/><path d="M256 47v74M219 84h74" stroke="#ffe56d" stroke-width="12" stroke-linecap="round"/></svg>
